<?xml version="1.0" encoding="UTF-8" standalone="no"?>
<!-- Created with Inkscape (http://www.inkscape.org/) -->
<svg xmlns:rdf="http://www.w3.org/1999/02/22-rdf-syntax-ns#" xmlns="http://www.w3.org/2000/svg" height="30" width="30" version="1.1" xmlns:cc="http://creativecommons.org/ns#" xmlns:dc="http://purl.org/dc/elements/1.1/">
<metadata>
<rdf:RDF>
<cc:Work rdf:about="">
<dc:format>image/svg+xml</dc:format>
<dc:type rdf:resource="http://purl.org/dc/dcmitype/StillImage"/>
<dc:title/>
</cc:Work>
</rdf:RDF>
</metadata>
<g transform="translate(-231.7 -400)">
<g transform="matrix(1.2375 0 0 1.2373 9.0785 400.53)" fill="#a03033">
<path d="m197.01 0.35384v2.2773h4.269v3.9102h2.18l-0.004-6.1914h-6.445"/>
<path d="m201.28 15.006h2.18v-6.5743h-2.18v6.5743z"/>
<path d="m201.28 21.104-4.23-0.0078v2.1797h6.41v-6.4102h-2.18v4.2383"/>
<path d="m188.62 23.276h6.703v-2.1797h-6.703v2.1797z"/>
<path d="m182.69 16.768-2.179 0.0117v6.5078l6.269-0.0117-0.019-2.1758h-4.086l0.019-4.332"/>
<path d="m180.48 15.006h2.18v-6.5743h-2.18v6.5743z"/>
<path d="m182.75 6.5882v-3.9141l4.23 0.0078v-2.3398l-6.449-0.0039-0.004 6.2421 2.223 0.0079"/>
<path d="m199.39 4.3616-6.636-0.0039v2.0117h4.293v4.7266h2.343v-6.7344"/>
<path d="m199.39 12.955h-2.343v3.8712l-4.231 0.0312v2.3438h6.574v-6.2501"/>
<path d="m188.62 15.006h6.703v-6.5743h-6.703v6.5743z"/>
<path d="m184.54 19.151 6.562 0.0117-0.035-2.3125h-4.168l-0.004-3.8907h-2.343l-0.012 6.1915"/>
<path d="m191.13 4.3616h-6.574v6.7344l2.339 0.0039-0.011-4.5469 4.246-0.0117v-2.1797"/>
<path d="m188.63 2.6506h6.672v-2.3359h-6.672v2.3359z"/>
<path d="m223.63 1.8967c-0.782 1.5157-1.539 3.0313-2.426 4.4961-1.438-1.1367-3.309-1.9179-5.203-1.2109-0.504 0.125-1.059 0.6797-1.211 1.2109-0.274 0.9336 0.402 1.5899 1.086 2.0469 3.183 1.2109 7.73 1.7656 8.617 5.9375 0.176 2.6524 0 5.5586-2.195 7.2774-3.207 2.8789-8.692 2.8281-12.356 0.9844-0.781-0.3282-1.465-0.8555-2.195-1.336 0.855-1.539 1.715-3.082 2.551-4.5976 1.742 1.6679 3.965 2.6015 6.441 2.1718 0.68-0.25 1.516-0.7812 1.692-1.5664 0.226-1.0078-0.25-1.8437-1.086-2.3242-3.032-1.5156-7.782-1.4649-8.618-5.6836-0.226-2.5508 0.125-5.1797 1.946-7.0508 3.359-3.5117 9.273-2.3476 12.965-0.3516"/>
<path d="m259.29 0.55694c1.844 3.8906 3.031 8.0586 4.75 12.004 1.719-3.8633 3.336-8.0117 5.078-12.004h5.676l3.551 22.836-5.817-0.0156c-0.605-4.3438-1.211-8.668-1.816-12.988-1.934 4.2969-3.668 8.629-5.489 12.926-0.832 0.0234-1.707 0-2.492 0l-5.133-13.051c-0.832 4.2423-1.316 8.7813-1.972 13.106l-5.781 0.0079v-0.9844l3.804-21.836h5.645"/>
<path d="m293.87 5.5452-6.898-0.0117 0.011 3.8906h6.278l0.011 4.961-6.304-0.0079 0.011 8.9844-5.949 0.0078v-22.82h12.836v4.9883"/>
<path d="m302.96 14.28c-0.051 1.9492 1.269 3.9375 2.687 4.3437 1.54 0.2266 3.282 0.2774 4.372-0.9609 1.085-1.2617 0.898-1.9844 1.074-3.6289l0.008-13.352 6.093 0.007799c0 4.6016-0.054 13.344-0.054 13.914 0 2.1406-0.379 3.1719-0.829 4.2695-1.617 3.9922-5.863 5.2032-9.929 5.1016-3.082-0.1992-6.063-1.1875-7.883-3.8906-0.91-1.668-1.387-3.5117-1.336-5.5821l0.125-13.949h5.684l-0.008 13.723"/>
<path d="m337.68 14.74 0.027-14.184h5.797l0.004 22.809-5.715 0.0078-10.918-13.949 0.004 13.937-5.941 0.0078v-22.82h5.683l11.055 14.184"/>
<path d="m383.16 5.5452-6.801-0.0117-0.004 3.8086h6.914v4.9336h-7.023l0.012 3.9883 6.902-0.0039v5.0976l-12.742 0.0078v-22.82h12.734l0.004 4.9883"/>
<path d="m400.79 5.5452-4.645-0.0117 0.004 17.828-5.945 0.0078 0.004-17.828-4.856-0.0117v-4.9766h15.391l0.043 4.9883"/>
<path d="m363.52 3.3616c-2.43-2.4492-7.84-2.7813-11.66-2.8047h-4.234v22.82s3.453 0 5.187 0.0156c2.047 0.0156 4.067-0.0235 5.957-0.3946 3.864-0.6562 7.379-4.4726 8.387-8.1093 0.957-4.293-0.25-8.5899-3.637-11.523l-0.004-0.0039zm-2.68 11.144c-0.602 1.8945-2.426 3.3867-4.367 3.6367-0.883 0.2265-1.946 0.0742-2.907 0.125v-12.609c2.301-0.0743 4.571 0.1757 6.063 1.8164 1.668 1.8164 1.894 4.6757 1.211 7.0234"/>
<path d="m240.49 0.55694h-6.293l-8.742 22.82 6.383-0.0079 1.375-4.0078 8.172-0.0039c0.527 1.2852 0.949 2.7852 1.656 4.0235l6.207-0.0079-0.141-0.2382-8.617-22.566v-0.0117zm-5.461 14.203 2.324-6.9219 2.297 6.9219h-4.625"/>
<path d="m15.754 2.346c-0.7734 1.5039-1.5273 3.0039-2.4023 4.457-1.4258-1.125-3.3047-1.8789-5.1602-1.1992-0.52343 0.1484-1.0742 0.6992-1.1992 1.1992-0.27343 0.9492 0.39844 1.6016 1.0742 2.0547 3.1563 1.1758 7.6406 1.7265 8.543 5.8867 0.1758 2.6289-0.0235 5.5118-2.1797 7.2149-3.18 2.828-8.6175 2.805-12.25 0.949-0.7738-0.324-1.4769-0.851-2.18-1.324 0.85156-1.504 1.6758-3.031 2.5273-4.558 1.7266 1.6523 3.9336 2.6055 6.3633 2.1523 0.69922-0.25 1.5274-0.7734 1.7032-1.5508 0.1992-1-0.2735-1.8281-1.1016-2.2773-3.0039-1.5-7.6875-1.4532-8.5195-5.6602-0.2227-2.5276 0.1249-5.1097 1.9023-6.9651 3.3555-3.4805 9.219-2.3516 12.879-0.375"/>
<path d="m33.207 5.9514h-4.5703l0.0156 17.668-5.9296 0.0196-0.0078-17.676-4.8008-0.0118v-4.9101h15.281l0.0117 4.9062"/>
<path d="m41.363 15.702c0.1758 1.3515 1.0273 2.8281 2.4023 3.2539 1.5235 0.2226 3.2774 0.25 4.3321-0.9766 1.0742-1.25 0.8984-3.0312 1.0742-4.6836l-0.0196-12.25h5.8985v14.035c0.1601 2.4804-0.4219 3.3164-0.6875 4.1015-1.6016 3.9805-5.836 5.1602-9.8711 5.0586-3.0547-0.1718-5.9844-1.1523-7.8164-3.8554-0.8985-1.6524-1.375-3.4805-1.3242-5.5118l0.0156-13.828h5.9375l0.0586 14.656"/>
<path d="m94.281 5.8538-6.961-0.0078-0.0039 3.8398 6.5938-0.0156 0.0195 4.9531-6.6094 0.0079-0.0039 3.9492 6.8789-0.0039v5.0429l-12.641 0.0196v-22.598h12.723l0.004 4.8086"/>
<path d="m114.62 14.877-0.039-13.832h5.809l0.007 22.578-5.668 0.0196-10.82-13.828-0.062 13.809-5.8207 0.0196v-22.598h5.6597l10.938 13.832"/>
<path d="m138.18 5.8538-4.723-0.0078v17.777l-5.848 0.0196-0.008-17.676-4.8-0.0118v-4.9101h15.379l0.003 4.8086"/>
<path d="m153.11 5.9671-6.875 0.0117 0.012 3.707 6.602 0.0078 0.011 4.9258-6.601 0.0078-0.008 3.9493 6.953 0.0078v5.043l-12.715 0.0039v-22.598h12.629l-0.004 4.9218"/>
<path d="m168.62 14.373c0.926-0.4258 1.98-0.5234 2.754-1.3008 1.953-1.7265 2.277-4.2812 2.055-6.7383-1.2-4.6406-7.43-5.2617-11.876-5.2851h-4.605v22.598l5.883-0.0039v-8.6602l5.66 8.668 7.16-0.0039-7.035-9.2617 0.004-0.0118zm-1.805-4.3086c-1.051 0.9492-2.48 1-3.984 0.9492v-5.4101c1.601 0.1992 3.73-0.1485 4.332 1.6758 0.25 0.9257 0.406 1.8437-0.348 2.7773"/>
<path d="m74.688 3.7991c-3.981-3.9805-10.27-2.3789-15.758-2.7539v22.598c3.6836-0.125 7.6133 0.3008 11.074-0.3477 3.8086-0.6758 7.2891-4.4336 8.293-8.0664 0.9492-4.2578-0.25-8.5156-3.6055-11.426l-0.004-0.0039zm-2.657 11.078c-0.5743 1.8516-2.4024 3.3282-4.3086 3.6055-0.8985 0.1992-1.9297 0.0742-2.9063 0.0977v-12.5c2.2774-0.0468 4.5352 0.1719 6.0117 1.8008 1.6758 1.8008 1.9024 4.6602 1.1992 6.9883"/>
</g>
</g>
</svg>
